<svg width="44" height="44" viewBox="0 0 44 44" fill="none" xmlns="http://www.w3.org/2000/svg">
<circle cx="22" cy="22" r="20" stroke="white" stroke-width="3"/>
<path d="M6.62231 31V11.9843H14.0158C19.2551 11.9843 22.4731 15.3885 22.4731 21.5055C22.4731 27.6224 19.3615 31 14.0956 31H6.62231ZM9.78716 14.6705V28.3139H13.8562C18.1115 28.3139 19.3083 25.149 19.3083 21.5055C19.3083 17.8619 18.1115 14.6705 13.8562 14.6705H9.78716ZM23.4148 31V11.9843H31.5263C35.4359 11.9843 37.9624 13.979 37.9624 17.4364C37.9624 20.0959 36.606 21.6384 34.4252 22.1704V22.2235C38.8135 23.048 37.2177 30.4947 38.2284 30.8138V31H34.9039C34.0263 30.2021 35.8082 23.6597 31.2338 23.6597H26.5796V31H23.4148ZM26.5796 14.6705V20.947H30.8615C32.8029 20.947 34.8242 20.5746 34.8242 17.8087C34.8242 15.0694 32.8029 14.6705 30.8615 14.6705H26.5796Z" fill="white"/>
</svg>
